<svg width="46" height="46" viewBox="0 0 46 46" fill="none" xmlns="http://www.w3.org/2000/svg">
<g filter="url(#filter0_d_1804_3028)">
<circle cx="17" cy="17" r="17" transform="matrix(-1 0 0 1 39 3)" fill="white"/>
</g>
<mask id="mask0_1804_3028" style="mask-type:luminance" maskUnits="userSpaceOnUse" x="5" y="3" width="34" height="34">
<circle cx="17" cy="17" r="17" transform="matrix(-1 0 0 1 39 3)" fill="white"/>
</mask>
<g mask="url(#mask0_1804_3028)">
<path fill-rule="evenodd" clip-rule="evenodd" d="M21.9884 14.2221C21.739 13.9758 21.739 13.5779 21.9884 13.3316C22.2355 13.0845 22.6334 13.0845 22.8798 13.3316L29.1837 19.6316C29.3005 19.7516 29.3684 19.9118 29.3684 20.0784C29.3684 20.0816 29.3653 20.0879 29.3653 20.091C29.3653 20.0974 29.3684 20.1005 29.3684 20.1068C29.3684 20.316 29.2603 20.4921 29.1 20.6058L22.8553 26.8537C22.6082 27.1008 22.2079 27.1008 21.9608 26.8537C21.7145 26.6074 21.7145 26.2095 21.9608 25.9631L27.1848 20.7353L4.73765 20.7353C4.38871 20.7353 4.10529 20.455 4.10529 20.1068C4.10529 19.7547 4.38871 19.4745 4.73765 19.4745L27.2377 19.4745L21.9884 14.2221Z" fill="#4E72CA"/>
</g>
<defs>
<filter id="filter0_d_1804_3028" x="0" y="0" width="46" height="46" filterUnits="userSpaceOnUse" color-interpolation-filters="sRGB">
<feFlood flood-opacity="0" result="BackgroundImageFix"/>
<feColorMatrix in="SourceAlpha" type="matrix" values="0 0 0 0 0 0 0 0 0 0 0 0 0 0 0 0 0 0 127 0" result="hardAlpha"/>
<feOffset dx="1" dy="3"/>
<feGaussianBlur stdDeviation="3"/>
<feColorMatrix type="matrix" values="0 0 0 0 0 0 0 0 0 0 0 0 0 0 0 0 0 0 0.129331 0"/>
<feBlend mode="normal" in2="BackgroundImageFix" result="effect1_dropShadow_1804_3028"/>
<feBlend mode="normal" in="SourceGraphic" in2="effect1_dropShadow_1804_3028" result="shape"/>
</filter>
</defs>
</svg>
